<?xml version="1.0" standalone="no"?>
<!DOCTYPE svg PUBLIC "-//W3C//DTD SVG 20010904//EN"
 "http://www.w3.org/TR/2001/REC-SVG-20010904/DTD/svg10.dtd">
<svg version="1.0" xmlns="http://www.w3.org/2000/svg"
 width="1494.000000pt" height="1599.000000pt" viewBox="0 0 1494.000000 1599.000000"
 preserveAspectRatio="xMidYMid meet">
<metadata>
Created by potrace 1.16, written by Peter Selinger 2001-2019
</metadata>
<g transform="translate(0.000000,1599.000000) scale(0.100000,-0.100000)"
fill="#000000" stroke="none">
<path d="M7256 15440 c-54 -36 -173 -151 -229 -220 -161 -201 -271 -417 -384
-760 -57 -172 -92 -308 -100 -388 -4 -43 -11 -65 -22 -71 -9 -5 -74 -11 -146
-15 -244 -11 -486 -60 -791 -159 -620 -202 -933 -354 -1419 -690 -167 -115
-245 -175 -281 -216 l-21 -24 -59 40 c-171 115 -371 218 -554 286 -253 94
-602 157 -875 157 -94 0 -115 -8 -115 -42 0 -10 -4 -18 -10 -18 -16 0 -12
-301 5 -412 37 -245 118 -484 265 -772 65 -128 134 -243 193 -319 l29 -37 -64
-73 c-394 -445 -875 -1506 -977 -2157 -11 -69 -27 -184 -37 -256 l-17 -132
-76 -12 c-484 -76 -880 -282 -1264 -659 -127 -124 -159 -164 -150 -188 10 -29
43 -6 162 115 145 147 244 229 421 346 265 177 487 260 937 352 17 3 23 13 27
47 63 490 85 593 196 927 115 345 194 538 341 825 177 346 335 599 481 769 37
44 68 83 68 88 0 5 -17 37 -38 71 -110 178 -148 247 -204 364 -181 382 -244
611 -255 929 l-6 182 44 4 c126 13 512 -33 669 -79 300 -87 492 -171 745 -328
55 -34 106 -65 113 -69 8 -5 36 13 75 47 121 106 456 335 669 458 313 180 736
352 1160 473 216 61 527 116 665 117 43 0 96 3 118 7 l40 7 8 60 c30 235 188
704 310 919 96 170 205 308 321 407 45 38 84 69 88 69 13 0 136 -110 198 -177
71 -78 190 -254 244 -361 120 -239 275 -729 276 -869 0 -23 5 -45 10 -48 6 -4
77 -10 158 -15 247 -15 514 -67 789 -154 439 -140 757 -274 1058 -448 185
-107 482 -311 614 -421 41 -34 79 -66 85 -71 8 -5 43 12 96 46 321 207 665
341 1018 399 133 21 359 38 431 31 l44 -4 -6 -192 c-4 -167 -9 -208 -36 -326
-41 -180 -70 -266 -152 -450 -90 -204 -158 -335 -254 -485 -62 -97 -63 -83 18
-182 41 -48 93 -117 117 -153 24 -36 56 -81 71 -100 51 -66 211 -354 323 -579
127 -257 204 -445 305 -746 104 -310 144 -487 181 -795 12 -96 26 -180 32
-187 6 -7 20 -13 32 -13 33 0 312 -67 401 -96 362 -120 670 -316 954 -610 61
-63 118 -114 126 -114 23 0 29 27 12 53 -33 48 -238 248 -333 325 -323 258
-609 391 -1014 472 l-135 27 -27 204 c-41 317 -78 473 -188 789 -106 306 -172
468 -287 700 -181 365 -392 704 -531 851 l-62 67 23 28 c13 16 45 62 71 102
168 264 322 626 376 887 37 183 49 512 19 530 -5 4 -9 14 -9 25 0 25 -19 30
-113 30 -491 -1 -1026 -166 -1415 -436 -35 -24 -67 -44 -72 -44 -5 0 -17 11
-26 25 -20 31 -179 149 -394 291 -229 153 -242 160 -465 280 -214 115 -713
304 -1035 393 -193 53 -492 101 -635 101 -105 0 -113 4 -120 59 -19 149 -118
482 -202 680 -108 255 -221 431 -375 584 -60 59 -120 114 -133 123 -32 21 -91
23 -119 4z"/>
<path d="M7288 15068 c-45 -35 -165 -223 -235 -368 -162 -337 -256 -836 -240
-1279 13 -340 50 -552 146 -821 62 -177 201 -443 295 -566 28 -36 33 -50 26
-65 -11 -19 4 -37 15 -19 3 5 18 7 32 4 22 -6 24 -4 19 13 -5 15 12 47 59 118
138 207 272 511 334 760 46 184 62 325 68 590 10 412 -35 715 -158 1072 -61
177 -170 384 -266 506 -55 69 -68 76 -95 55z m73 -88 c187 -240 332 -620 388
-1015 28 -191 43 -431 36 -545 -27 -435 -87 -684 -244 -1012 -77 -161 -210
-378 -231 -378 -17 0 -160 238 -225 377 -100 209 -169 410 -201 585 -119 663
7 1423 313 1895 53 82 115 156 122 146 4 -4 23 -28 42 -53z"/>
<path d="M6365 13584 c-11 -3 -81 -19 -155 -36 -241 -54 -500 -141 -500 -167
0 -5 93 -57 206 -115 208 -107 342 -191 499 -311 104 -79 121 -82 131 -20 6
44 -1 101 -56 455 -11 69 -22 141 -24 160 -3 33 -5 35 -42 37 -21 0 -48 -1
-59 -3z m69 -76 c3 -18 12 -94 21 -168 9 -74 25 -187 36 -252 10 -64 19 -121
19 -127 0 -6 -46 24 -102 67 -160 121 -380 249 -573 333 l-50 21 75 24 c136
43 503 131 552 133 12 1 19 -9 22 -31z"/>
<path d="M8166 13579 c-3 -8 -16 -88 -30 -179 -14 -91 -35 -224 -46 -296 -22
-142 -18 -206 13 -212 10 -2 71 37 142 90 152 114 290 198 499 303 88 44 161
86 163 92 7 20 -87 60 -251 107 -291 85 -481 121 -490 95z m218 -75 c131 -29
433 -110 444 -119 1 -1 -78 -42 -175 -91 -184 -92 -320 -175 -458 -282 -43
-34 -80 -60 -82 -58 -1 1 4 40 12 87 17 89 52 346 62 442 4 42 10 57 21 57 8
0 88 -16 176 -36z"/>
<path d="M5264 13233 c-19 -15 -88 -229 -134 -418 -60 -250 -65 -299 -64 -665
0 -296 2 -352 22 -480 42 -270 109 -500 227 -785 41 -97 123 -249 192 -355 97
-147 146 -212 258 -334 49 -55 95 -109 100 -119 6 -11 15 -18 20 -16 12 5 12
22 -4 119 -6 41 -14 206 -17 365 -7 330 1 424 61 686 42 188 55 229 70 229 56
0 283 -116 428 -218 159 -113 236 -179 387 -336 246 -257 309 -318 320 -311 7
4 4 16 -8 33 -13 18 -21 54 -26 107 -10 118 -34 294 -57 430 -62 356 -314 910
-565 1245 -165 220 -419 445 -690 612 -209 129 -481 239 -520 211z m191 -83
c67 -27 136 -57 155 -68 232 -130 346 -208 510 -349 268 -230 445 -472 635
-866 83 -174 176 -409 214 -547 25 -92 43 -185 76 -405 14 -93 27 -180 29
-192 2 -13 0 -23 -5 -23 -4 0 -41 39 -82 88 -120 140 -352 360 -484 456 -137
101 -316 201 -433 243 -77 27 -79 27 -99 9 -42 -38 -104 -266 -142 -521 -28
-193 -25 -546 6 -775 l6 -45 -51 55 c-119 125 -296 383 -381 553 -105 209
-210 511 -254 730 -50 256 -59 353 -59 652 -1 319 10 414 74 680 39 162 53
206 93 282 17 33 19 47 11 60 -6 10 -9 24 -6 31 6 18 44 9 187 -48z"/>
<path d="M9275 13228 c-461 -161 -903 -497 -1187 -903 -166 -237 -361 -646
-452 -948 -45 -147 -89 -411 -111 -657 -4 -44 -13 -82 -22 -92 -8 -9 -13 -23
-10 -30 3 -8 93 77 228 215 280 287 428 410 643 532 111 63 229 115 260 115
31 0 104 -314 133 -565 21 -195 6 -663 -27 -783 -15 -55 7 -84 28 -38 6 14 39
54 74 91 96 103 193 227 284 365 223 341 374 776 435 1255 19 151 17 612 -3
755 -18 127 -88 426 -113 487 -9 21 -21 58 -26 83 -6 24 -19 64 -29 87 -16 36
-23 43 -47 42 -15 0 -41 -5 -58 -11z m80 -75 c0 -27 5 -56 12 -64 34 -42 108
-316 140 -519 15 -93 18 -176 18 -430 0 -278 -3 -333 -23 -465 -66 -427 -219
-838 -430 -1155 -115 -171 -275 -370 -288 -357 -2 2 1 26 7 53 5 27 13 182 16
344 6 329 -3 426 -58 659 -37 157 -64 239 -89 270 -19 22 -22 22 -72 11 -69
-17 -299 -136 -401 -207 -107 -74 -227 -172 -300 -242 -65 -62 -253 -263 -305
-326 l-33 -40 6 60 c9 88 63 420 81 495 68 297 263 737 457 1030 166 251 419
498 693 677 141 92 233 141 369 198 108 45 170 65 190 61 6 -2 10 -25 10 -53z"/>
<path d="M2513 13084 c-6 -15 37 -211 64 -294 53 -160 155 -414 210 -522 206
-409 530 -749 972 -1022 321 -198 768 -356 1007 -356 30 0 34 3 34 26 0 78
-117 383 -236 614 -156 301 -339 555 -574 790 -405 407 -864 670 -1328 760
-124 24 -141 25 -149 4z m339 -78 c356 -109 695 -310 998 -593 336 -315 591
-671 769 -1073 56 -129 151 -391 151 -419 0 -15 -37 -12 -199 20 -242 48 -594
201 -852 370 -405 266 -690 570 -883 940 -69 132 -99 205 -176 419 -43 118
-110 361 -110 395 0 17 150 -13 302 -59z"/>
<path d="M12025 13093 c-175 -26 -405 -102 -610 -202 -574 -281 -1065 -781
-1378 -1404 -107 -213 -222 -529 -210 -577 6 -22 9 -22 81 -16 221 20 436 88
717 226 257 127 394 215 603 389 266 221 475 486 622 786 119 242 270 696 258
776 -3 25 -23 31 -83 22z m27 -125 c-21 -93 -101 -338 -154 -478 -112 -293
-293 -568 -527 -800 -242 -241 -459 -395 -776 -550 -267 -132 -466 -196 -694
-225 -48 -6 -53 -5 -48 9 4 9 14 42 23 74 35 119 117 323 194 477 155 313 354
589 615 851 295 295 593 495 942 630 127 49 357 112 414 113 l35 1 -24 -102z"/>
<path d="M4685 12992 c-230 -133 -545 -367 -545 -404 0 -10 4 -18 8 -18 5 0
47 -51 93 -112 117 -156 235 -304 287 -360 50 -53 82 -61 100 -25 21 42 194
940 185 963 -8 22 -23 17 -128 -44z m-12 -449 c-46 -229 -85 -418 -87 -421 -5
-5 -41 35 -109 119 -24 30 -88 110 -143 177 -54 68 -107 134 -116 147 -18 23
-18 23 96 108 154 117 412 286 437 287 3 0 -32 -188 -78 -417z"/>
<path d="M9813 12994 c9 -88 166 -884 183 -927 22 -58 101 17 319 302 77 101
149 192 159 202 24 23 22 26 -107 130 -160 129 -470 329 -534 345 l-26 7 6
-59z m177 -101 c120 -74 334 -223 396 -277 l38 -33 -50 -59 c-27 -32 -112
-137 -188 -231 -75 -95 -141 -173 -146 -173 -4 0 -18 53 -30 118 -12 64 -48
250 -81 412 -62 309 -62 310 -54 310 3 0 55 -30 115 -67z"/>
<path d="M2942 11428 c-53 -57 -162 -240 -251 -423 -54 -110 -102 -210 -106
-222 -9 -32 10 -30 134 12 126 42 422 117 551 139 204 36 270 55 270 81 0 21
-120 117 -280 225 -135 90 -270 191 -270 201 0 17 -27 9 -48 -13z m105 -93
c32 -25 112 -82 178 -127 160 -109 260 -187 243 -192 -7 -2 -76 -13 -153 -26
-206 -33 -483 -106 -610 -160 -25 -11 -45 -15 -45 -9 0 6 38 85 85 177 82 163
217 382 234 382 5 0 36 -20 68 -45z"/>
<path d="M11633 11437 c-7 -12 -79 -64 -349 -254 -129 -90 -204 -152 -204
-166 1 -23 72 -47 218 -72 212 -36 531 -118 680 -175 45 -17 53 -18 58 -5 14
35 -211 466 -319 615 -54 73 -68 83 -84 57z m54 -105 c104 -155 295 -512 273
-512 -5 0 -33 9 -62 20 -144 55 -479 138 -650 161 -54 7 -98 16 -98 20 0 9
126 103 235 177 50 33 126 87 170 121 44 33 85 60 90 60 6 0 24 -21 42 -47z"/>
<path d="M6185 11028 c-11 -33 -25 -205 -25 -304 0 -470 144 -964 395 -1354
92 -144 259 -338 361 -421 86 -71 219 -159 238 -159 23 0 29 70 23 297 -6 245
-32 422 -98 646 -52 175 -73 231 -144 385 -135 291 -297 524 -513 736 -103
102 -204 186 -223 186 -5 0 -12 -6 -14 -12z m83 -70 c256 -229 457 -496 609
-807 152 -313 229 -590 263 -951 10 -106 2 -350 -12 -350 -13 0 -105 61 -153
101 -22 18 -71 65 -110 104 -255 257 -424 539 -543 905 -74 225 -108 408 -121
641 -9 173 -3 399 10 399 5 0 31 -19 57 -42z"/>
<path d="M8355 10994 c-190 -146 -387 -381 -555 -657 -29 -50 -133 -260 -164
-335 -79 -190 -145 -448 -181 -707 -19 -133 -18 -486 1 -505 24 -24 246 141
375 278 312 334 517 763 601 1265 19 113 22 169 22 392 0 248 -7 315 -31 315
-5 0 -35 -21 -68 -46z m70 -91 c5 -54 5 -168 1 -253 -10 -256 -47 -456 -131
-708 -88 -262 -202 -482 -357 -684 -145 -189 -437 -448 -454 -403 -4 8 -4 109
-1 223 10 413 98 751 298 1142 61 121 147 255 251 393 61 82 358 387 377 387
5 0 12 -44 16 -97z"/>
<path d="M3275 10609 c-290 -27 -610 -107 -810 -201 -33 -15 -65 -28 -72 -28
-25 0 -18 -30 35 -135 314 -631 905 -1180 1572 -1463 297 -126 643 -212 910
-227 58 -3 122 -11 143 -17 78 -23 59 12 -43 80 -301 202 -656 584 -796 857
-25 50 -50 94 -55 100 -18 18 -8 27 64 59 239 109 548 166 907 166 91 0 215
-7 275 -15 139 -19 195 -19 195 -2 0 20 -16 36 -115 119 -317 263 -648 445
-1043 573 -361 117 -803 168 -1167 134z m441 -39 c574 -45 1129 -245 1564
-564 87 -64 240 -189 236 -194 -2 -2 -55 5 -117 14 -138 20 -511 14 -679 -11
-192 -28 -455 -105 -580 -170 -28 -15 -43 -55 -20 -55 6 0 10 -7 10 -15 0 -27
78 -184 136 -272 79 -122 201 -268 335 -400 108 -106 271 -244 332 -281 15 -9
27 -20 27 -24 0 -17 -283 22 -460 63 -785 182 -1505 716 -1937 1434 -70 116
-133 239 -133 258 0 16 246 101 405 141 299 74 585 99 881 76z"/>
<path d="M10850 10609 c-285 -23 -637 -108 -900 -216 -215 -89 -480 -238 -656
-370 -203 -152 -281 -223 -267 -246 6 -10 103 -5 228 12 166 24 543 7 765 -35
153 -28 460 -138 460 -164 0 -5 -4 -10 -9 -10 -5 0 -25 -34 -46 -76 -136 -275
-439 -612 -770 -857 -49 -37 -95 -67 -102 -67 -13 0 -28 -38 -19 -47 3 -4 17
-1 31 5 14 7 54 12 88 12 231 1 586 80 880 196 412 161 773 398 1087 714 188
189 328 364 469 587 45 72 163 303 159 313 -4 13 -134 71 -262 116 -329 115
-753 165 -1136 133z m477 -40 c256 -21 515 -78 758 -165 55 -20 104 -40 108
-44 7 -6 -72 -171 -117 -244 -268 -431 -553 -735 -946 -1008 -331 -230 -750
-403 -1155 -477 -123 -23 -304 -45 -311 -38 -3 2 37 36 89 74 307 232 627 606
717 841 12 31 28 69 36 83 16 30 12 35 -45 64 -127 64 -365 133 -566 162 -167
25 -642 25 -727 1 -32 -9 -58 -12 -58 -8 0 20 218 190 370 290 124 80 434 234
580 287 425 154 858 217 1267 182z"/>
<path d="M2180 9810 c0 -12 -11 -60 -25 -108 -53 -186 -109 -557 -89 -590 9
-14 49 -22 195 -39 224 -26 476 -45 507 -37 29 8 28 32 -2 43 -13 5 -26 16
-29 25 -3 8 -37 57 -75 108 -38 51 -123 170 -189 263 -230 323 -293 395 -293
335z m132 -186 c40 -55 114 -158 163 -229 50 -70 118 -166 153 -211 34 -46 62
-86 62 -89 0 -10 -117 -5 -305 15 -104 11 -212 20 -239 20 l-48 0 6 58 c16
135 83 462 112 541 6 18 7 17 96 -105z"/>
<path d="M12389 9797 c-68 -86 -215 -286 -299 -407 -51 -74 -110 -155 -130
-180 -20 -25 -49 -64 -64 -87 -15 -22 -36 -43 -47 -46 -24 -7 -24 -23 0 -37
14 -7 65 -7 163 0 158 11 502 48 532 57 17 5 18 13 13 107 -7 114 -44 326 -83
473 -15 54 -29 110 -32 126 -6 36 -21 34 -53 -6z m39 -134 c36 -134 105 -511
96 -525 -3 -5 -26 -8 -52 -8 -26 0 -105 -7 -177 -15 -71 -8 -184 -18 -249 -21
l-120 -7 35 46 c19 26 95 132 169 237 235 330 264 370 271 370 3 0 15 -35 27
-77z"/>
<path d="M4675 9499 c-44 -5 -84 -14 -89 -19 -23 -23 207 -262 394 -410 149
-119 386 -273 515 -335 194 -93 530 -203 750 -246 126 -24 472 -44 580 -32
104 10 107 23 29 124 -164 213 -464 453 -754 603 -210 109 -519 222 -717 262
-265 53 -538 74 -708 53z m508 -64 c318 -50 565 -129 867 -278 249 -123 456
-272 656 -471 118 -118 162 -171 151 -182 -12 -12 -396 -4 -497 10 -239 34
-576 134 -809 241 -184 85 -387 214 -586 374 -80 64 -325 300 -325 313 0 13
66 16 255 13 105 -2 234 -11 288 -20z"/>
<path d="M9640 9503 c-430 -42 -719 -123 -1080 -302 -306 -152 -627 -403 -784
-611 -62 -83 -74 -109 -57 -120 59 -36 556 -13 735 35 291 76 496 146 661 224
237 113 580 360 770 555 97 100 168 187 159 195 -22 21 -281 36 -404 24z m294
-49 c25 -4 46 -10 46 -13 0 -4 -55 -62 -121 -129 -266 -267 -640 -513 -958
-629 -212 -77 -464 -145 -629 -167 -117 -17 -512 -23 -512 -8 0 26 166 198
295 307 408 342 923 565 1456 629 123 15 347 20 423 10z"/>
<path d="M1920 8804 c-19 -2 -87 -9 -150 -15 -259 -24 -514 -87 -769 -189
-155 -62 -236 -104 -394 -206 -95 -62 -115 -88 -79 -101 9 -3 29 -15 45 -25
26 -18 236 -138 242 -138 2 0 68 -31 148 -70 540 -259 1170 -318 1792 -166
262 64 547 175 712 277 111 69 243 175 243 195 0 39 -341 201 -585 277 -384
120 -600 157 -935 162 -129 2 -251 1 -270 -1z m561 -59 c63 -8 141 -20 174
-26 89 -15 422 -105 533 -144 214 -74 462 -192 462 -218 0 -16 -225 -166 -315
-210 -179 -88 -464 -183 -703 -233 -320 -68 -714 -73 -1037 -14 -200 37 -444
119 -648 218 -182 89 -357 190 -357 206 0 11 163 113 255 160 156 79 476 188
650 221 323 63 699 78 986 40z"/>
<path d="M12240 8804 c-294 -38 -441 -69 -725 -156 -225 -69 -562 -222 -597
-272 -11 -16 3 -33 78 -92 165 -132 343 -223 610 -313 642 -215 1277 -214
1860 5 218 81 644 308 644 342 0 10 -27 34 -63 56 -192 120 -247 152 -330 188
-51 21 -105 45 -122 53 -42 19 -235 80 -330 105 -93 24 -217 46 -370 66 -106
14 -584 27 -655 18z m627 -60 c380 -41 750 -160 1041 -334 67 -40 125 -77 128
-81 9 -15 -113 -86 -331 -194 -208 -103 -409 -177 -597 -219 -292 -67 -701
-75 -1023 -21 -289 49 -700 188 -888 302 -79 47 -215 141 -223 154 -9 15 19
33 121 83 235 115 641 247 878 285 37 6 95 16 130 22 179 30 502 32 764 3z"/>
<path d="M217 8273 c-16 -15 -4 -44 39 -102 191 -255 834 -570 1354 -664 l65
-12 6 -130 c15 -324 97 -749 203 -1060 75 -221 231 -564 355 -780 110 -191
323 -496 408 -586 l35 -37 -37 -52 c-195 -278 -365 -666 -464 -1058 -41 -163
-81 -400 -81 -480 0 -39 2 -43 22 -40 21 3 24 11 34 103 57 479 261 1043 514
1423 44 66 80 127 80 136 0 10 -9 16 -22 17 -28 0 -172 180 -295 364 -347 522
-571 1081 -657 1641 -44 280 -46 297 -52 435 -4 74 -11 139 -16 145 -5 7 -17
10 -27 7 -26 -7 -287 59 -436 110 -318 108 -578 241 -797 409 -72 54 -162 150
-188 198 -11 20 -31 26 -43 13z"/>
<path d="M14355 8248 c-33 -58 -137 -158 -236 -229 -272 -195 -652 -360 -1043
-454 -60 -14 -120 -25 -135 -23 -24 3 -26 0 -33 -47 -3 -27 -7 -81 -7 -118 -1
-71 -37 -339 -72 -537 -102 -583 -421 -1270 -824 -1777 -67 -85 -95 -113 -112
-113 -35 0 -29 -24 25 -99 253 -347 492 -982 542 -1436 16 -139 17 -145 40
-145 10 0 22 4 25 10 8 13 -21 226 -51 373 -83 411 -260 848 -469 1156 -30 45
-55 84 -55 87 0 3 38 54 83 112 380 485 667 1067 800 1622 54 223 106 569 108
710 0 41 3 93 7 115 l7 40 113 23 c337 68 771 246 1046 429 161 108 316 273
298 321 -8 23 -38 12 -57 -20z"/>
<path d="M6415 8194 c-357 -55 -608 -128 -872 -254 -314 -150 -705 -438 -895
-659 -27 -30 -48 -58 -48 -62 0 -19 158 -33 360 -32 186 0 236 4 365 27 335
59 503 119 815 289 294 161 502 310 695 498 72 70 127 131 123 134 -4 4 -51
19 -105 32 -77 19 -131 25 -253 28 -85 2 -168 1 -185 -1z m409 -50 c43 -7 80
-15 82 -17 5 -5 -179 -182 -251 -243 -171 -143 -502 -349 -724 -452 -178 -81
-383 -143 -608 -184 -111 -19 -162 -22 -390 -23 -144 0 -265 4 -269 8 -12 11
156 178 274 271 355 279 661 449 992 549 354 107 638 136 894 91z"/>
<path d="M7905 8193 c-49 -6 -219 -45 -235 -54 -12 -6 11 -33 100 -121 141
-138 247 -224 410 -333 472 -313 843 -452 1324 -496 181 -17 504 3 522 32 8
14 -240 256 -349 339 -352 269 -581 396 -933 516 -257 87 -643 141 -839 117z
m355 -44 c268 -37 506 -106 762 -224 297 -136 601 -347 836 -578 136 -134 148
-124 -148 -126 -327 -1 -590 45 -895 158 -170 64 -534 270 -730 415 -129 95
-365 307 -365 327 0 9 91 29 185 39 79 9 244 4 355 -11z"/>
<path d="M5044 8130 c-6 -6 -60 -13 -120 -16 -226 -10 -411 -37 -604 -85 -853
-215 -1545 -779 -1834 -1497 -63 -158 -89 -243 -76 -256 5 -5 10 -17 10 -27 0
-40 416 -154 700 -191 144 -19 643 -15 805 6 153 20 399 75 540 121 331 108
722 339 995 585 47 42 100 85 119 94 31 17 32 19 17 34 -13 14 -20 14 -34 4
-57 -41 -204 -62 -427 -62 -251 0 -438 26 -658 91 -99 30 -237 87 -237 98 0
16 84 205 122 276 142 259 259 395 638 740 41 37 76 74 78 81 4 16 -19 19 -34
4z m-74 -48 c0 -5 -12 -17 -28 -29 -66 -49 -301 -271 -383 -362 -64 -71 -189
-259 -250 -376 -43 -82 -119 -263 -119 -283 0 -13 52 -58 87 -76 96 -48 310
-107 503 -137 159 -25 454 -30 589 -10 45 7 85 11 87 8 2 -2 -33 -33 -79 -69
-295 -234 -647 -429 -942 -521 -259 -81 -445 -113 -758 -129 -433 -23 -771 22
-1162 154 -33 11 -65 22 -72 24 -15 4 1 63 52 196 197 511 614 968 1143 1251
353 190 755 311 1167 352 168 17 165 16 165 7z"/>
<path d="M9546 8132 c-3 -6 11 -26 31 -44 21 -19 65 -59 98 -89 136 -123 330
-319 385 -389 120 -152 266 -407 310 -539 16 -50 20 -46 -86 -90 -87 -37 -209
-73 -339 -99 -291 -60 -752 -55 -863 9 -33 19 -62 16 -62 -6 0 -8 9 -17 21
-20 11 -4 69 -49 127 -101 408 -359 909 -601 1419 -683 254 -41 649 -50 918
-21 186 21 496 94 639 151 80 32 86 55 50 171 -135 434 -449 859 -859 1164
-415 309 -943 510 -1459 555 -242 21 -291 26 -307 33 -10 4 -20 3 -23 -2z
m309 -63 c609 -56 1230 -326 1664 -722 295 -269 517 -600 635 -948 40 -118 42
-129 22 -129 -8 0 -55 -13 -103 -30 -362 -121 -706 -164 -1131 -142 -444 23
-772 106 -1136 289 -195 98 -478 285 -601 398 l-40 36 35 -6 c316 -53 772 -5
1080 114 104 40 150 72 150 105 0 29 -65 187 -117 284 -150 277 -293 448 -585
697 -38 31 -68 61 -68 66 0 5 17 7 38 4 20 -2 91 -9 157 -16z"/>
<path d="M7058 7880 c-111 -79 -242 -214 -364 -375 -185 -243 -375 -644 -447
-945 -57 -232 -96 -664 -75 -825 5 -44 11 -91 12 -105 5 -50 34 -32 168 102
511 512 828 1239 828 1901 0 124 -16 285 -29 300 -4 4 -46 -20 -93 -53z m87
-228 c-1 -291 -23 -435 -112 -722 -103 -336 -283 -673 -512 -960 -98 -122
-281 -304 -294 -291 -15 15 -9 395 8 551 29 262 67 410 167 660 160 397 405
748 672 962 36 28 52 36 60 28 7 -7 11 -83 11 -228z"/>
<path d="M7466 7923 c-17 -61 -28 -233 -23 -362 13 -318 103 -674 252 -999
142 -310 346 -602 588 -841 113 -111 134 -128 147 -115 4 5 13 47 19 93 34
258 -25 754 -124 1038 -149 431 -353 767 -626 1028 -82 78 -136 123 -191 158
-34 21 -35 21 -42 0z m126 -106 c241 -212 474 -545 611 -878 97 -235 146 -412
177 -639 23 -173 37 -532 23 -595 l-10 -40 -102 100 c-56 55 -128 132 -159
170 -31 39 -59 72 -62 75 -19 17 -139 194 -188 276 -267 450 -403 899 -405
1344 -2 165 7 260 22 260 5 0 46 -33 93 -73z"/>
<path d="M2720 7535 c-9 -11 -32 -15 -89 -15 -42 0 -166 -7 -276 -15 -110 -9
-225 -15 -255 -13 l-55 3 2 -58 c6 -173 152 -712 193 -712 16 0 47 44 154 215
43 69 103 163 133 210 183 286 214 337 220 358 7 31 -10 48 -27 27z m-60 -69
c0 -2 -27 -46 -60 -97 -69 -110 -296 -487 -325 -541 -11 -21 -22 -38 -26 -38
-13 0 -127 471 -143 591 l-7 46 138 13 c76 7 170 16 208 20 78 8 215 12 215 6z"/>
<path d="M11875 7540 c-11 -18 6 -53 88 -180 98 -151 119 -185 232 -365 121
-194 176 -275 186 -275 44 0 187 527 192 704 l2 70 -50 -3 c-27 -1 -140 5
-250 14 -110 8 -234 15 -275 15 -51 0 -83 5 -97 15 -14 10 -24 12 -28 5z m290
-79 c44 -5 142 -15 218 -22 l137 -12 0 -28 c0 -34 -48 -259 -90 -424 -38 -148
-50 -185 -59 -185 -4 0 -21 28 -39 63 -52 102 -241 415 -356 590 l-18 27 64 0
c35 0 99 -4 143 -9z"/>
<path d="M5827 6571 c-80 -52 -265 -292 -375 -486 -167 -295 -321 -760 -376
-1135 -62 -425 -27 -868 106 -1335 55 -195 100 -285 143 -285 9 0 67 25 128
56 785 392 1513 1443 1641 2364 17 126 28 313 19 336 -6 16 -23 19 -23 4 0
-51 -453 -538 -603 -648 -99 -73 -280 -189 -349 -224 -96 -48 -96 -48 -140 67
-46 121 -103 368 -120 525 -9 75 -12 229 -11 448 1 182 -1 332 -5 332 -4 0
-20 -8 -35 -19z m9 -413 c0 -230 5 -383 13 -438 22 -150 69 -347 107 -447 46
-124 51 -133 74 -133 33 0 232 106 375 201 126 82 161 112 341 293 110 111
228 239 262 284 34 46 65 84 69 85 10 3 5 -87 -12 -211 -120 -868 -760 -1849
-1495 -2292 -101 -61 -200 -111 -247 -125 -20 -6 -24 1 -47 77 -169 560 -219
995 -162 1413 21 153 32 207 76 390 117 475 313 884 559 1163 45 50 83 92 84
92 1 0 3 -159 3 -352z"/>
<path d="M8757 6584 c-3 -3 -3 -124 0 -268 8 -367 -11 -591 -72 -838 -28 -112
-95 -298 -107 -298 -39 0 -303 156 -453 268 -70 53 -382 366 -465 467 -31 39
-75 96 -97 127 -22 32 -43 55 -47 51 -9 -10 -7 -165 4 -272 58 -550 367 -1222
799 -1736 189 -225 446 -454 671 -599 70 -45 290 -156 309 -156 52 0 94 95
167 378 129 502 146 938 54 1395 -122 601 -358 1101 -671 1419 -64 65 -78 75
-92 62z m94 -141 c255 -271 461 -693 588 -1208 73 -296 96 -500 88 -785 -9
-314 -54 -571 -163 -945 -20 -66 -39 -123 -43 -128 -10 -10 -98 27 -207 88
-131 74 -195 118 -325 221 -605 483 -1093 1297 -1219 2034 -20 120 -37 290
-28 290 3 0 37 -42 75 -92 81 -108 401 -435 488 -500 153 -113 377 -243 465
-269 51 -15 46 -21 100 131 54 155 97 356 111 520 14 167 17 449 6 593 -5 62
-5 107 1 107 5 0 33 -26 63 -57z"/>
<path d="M4705 5813 c-11 -3 -93 -29 -182 -58 -473 -157 -875 -389 -1186 -685
-208 -197 -439 -515 -580 -796 -130 -260 -215 -519 -233 -711 -6 -59 -4 -71
10 -76 20 -8 224 51 381 110 676 255 1280 796 1606 1439 110 217 204 493 229
674 6 41 13 83 16 93 6 18 -14 21 -61 10z m15 -60 c0 -49 -74 -300 -135 -458
-316 -819 -1078 -1501 -1928 -1725 l-109 -29 7 52 c35 251 209 666 404 959
238 357 493 610 824 818 261 164 483 266 796 365 122 39 141 41 141 18z"/>
<path d="M9866 5768 c30 -253 145 -579 296 -843 402 -702 1080 -1224 1850
-1425 99 -26 103 -21 83 105 -77 488 -399 1068 -816 1470 -237 228 -541 423
-894 573 -147 63 -468 172 -504 172 -20 0 -21 -4 -15 -52z m226 -49 c217 -73
353 -130 503 -208 422 -221 722 -476 991 -843 203 -278 385 -661 458 -963 43
-177 44 -159 -6 -152 -174 24 -527 170 -794 329 -286 169 -603 451 -809 718
-249 321 -409 651 -509 1047 -14 56 -26 106 -26 112 0 20 38 12 192 -40z"/>
<path d="M2610 5768 c0 -48 185 -351 295 -483 36 -44 74 -92 83 -107 9 -16 20
-28 24 -28 8 0 202 164 396 333 100 88 162 164 146 180 -3 3 -17 0 -32 -5 -20
-7 -71 -2 -202 21 -325 58 -655 111 -691 111 -13 0 -19 -7 -19 -22z m337 -79
c131 -22 294 -50 363 -61 69 -11 128 -23 132 -26 4 -4 -57 -63 -134 -132 -78
-69 -174 -155 -215 -192 -40 -38 -74 -68 -76 -68 -22 0 -337 481 -337 513 0
11 18 9 267 -34z"/>
<path d="M11905 5780 c-22 -5 -105 -18 -185 -30 -80 -12 -190 -30 -245 -40
-215 -41 -349 -61 -377 -54 -28 6 -29 4 -23 -17 11 -41 195 -211 477 -442 54
-44 78 -52 78 -25 0 6 26 38 57 72 110 118 347 506 328 536 -7 12 -53 11 -110
0z m13 -107 c-80 -145 -194 -317 -288 -436 l-22 -27 -32 27 c-45 38 -301 267
-356 320 -24 23 -42 44 -40 47 3 2 66 14 140 25 74 12 234 39 355 60 121 21
232 39 248 40 l27 1 -32 -57z"/>
<path d="M7287 4693 c-4 -3 -7 -12 -7 -18 0 -7 -29 -61 -65 -121 -199 -332
-333 -708 -392 -1100 -27 -180 -24 -582 6 -759 65 -385 200 -729 402 -1026 33
-47 59 -91 59 -97 0 -19 40 -14 47 6 4 9 39 67 79 127 202 308 345 705 390
1080 23 194 15 559 -15 730 -67 376 -187 708 -371 1020 -29 50 -62 107 -73
128 -18 34 -43 47 -60 30z m59 -125 c15 -23 55 -94 90 -158 258 -474 378
-1028 334 -1530 -27 -303 -119 -637 -247 -895 -64 -129 -195 -345 -209 -345
-25 0 -203 309 -269 465 -67 159 -135 399 -172 600 -26 144 -26 623 0 775 43
252 103 462 192 675 69 165 226 455 246 455 5 0 21 -19 35 -42z"/>
<path d="M4593 4511 c-58 -62 -201 -248 -299 -387 -35 -51 -71 -94 -79 -98
-31 -12 -15 -46 43 -91 111 -88 435 -266 555 -305 45 -14 65 -4 49 26 -18 34
-70 265 -102 449 -39 226 -88 441 -103 453 -8 7 -28 -8 -64 -47z m76 -161 c12
-58 37 -190 57 -294 19 -104 44 -223 55 -264 10 -41 19 -81 19 -89 0 -25 -404
198 -499 276 -22 18 -32 33 -28 42 7 15 85 121 252 342 125 165 109 167 144
-13z"/>
<path d="M9957 4531 c-24 -59 -44 -144 -66 -276 -41 -244 -89 -475 -116 -558
-16 -50 -19 -70 -10 -73 49 -19 514 226 616 325 53 51 60 70 30 78 -11 3 -36
30 -57 61 -73 111 -270 367 -326 423 l-56 58 -15 -38z m139 -166 c54 -71 104
-137 111 -145 6 -8 44 -58 82 -110 l71 -95 -40 -35 c-50 -44 -263 -172 -399
-240 -116 -58 -109 -63 -78 50 9 31 32 141 51 245 20 105 43 226 52 270 9 44
21 108 27 143 6 34 14 59 17 55 4 -4 52 -66 106 -138z"/>
<path d="M3876 3781 c-14 -22 -340 -188 -541 -276 -292 -127 -433 -173 -654
-210 -186 -31 -351 -47 -466 -44 -71 1 -91 -1 -99 -14 -7 -11 -6 -20 3 -31 37
-44 512 3 797 78 198 53 715 285 949 426 l30 18 86 -76 c183 -164 384 -290
749 -472 263 -132 347 -168 601 -264 349 -131 726 -220 1027 -242 51 -4 95
-10 97 -14 2 -4 13 -47 24 -96 56 -254 253 -708 406 -934 110 -162 166 -232
295 -370 68 -72 120 -120 132 -120 11 0 56 39 107 93 229 239 377 454 504 732
116 253 197 474 227 620 l17 80 119 11 c234 23 428 61 720 142 289 81 854 326
1179 513 197 112 422 275 509 367 l29 31 91 -50 c297 -163 702 -343 881 -392
279 -76 766 -125 809 -82 8 9 13 22 10 30 -5 12 -28 15 -113 15 -270 1 -626
63 -855 149 -250 95 -707 311 -784 371 -31 25 -62 26 -69 3 -7 -23 -131 -131
-240 -209 -246 -176 -735 -427 -1103 -565 -286 -108 -320 -119 -590 -185 -162
-39 -270 -57 -475 -79 -76 -8 -142 -19 -146 -23 -3 -4 -17 -50 -29 -102 -51
-213 -225 -642 -336 -832 -99 -167 -243 -358 -356 -473 l-109 -110 -109 114
c-208 216 -378 488 -529 845 -79 187 -103 255 -147 420 -19 72 -38 134 -42
138 -4 4 -71 15 -147 23 -361 40 -641 107 -995 238 -251 94 -358 141 -608 266
-277 140 -373 194 -545 313 -76 52 -236 187 -253 214 -16 24 -48 32 -58 15z"/>
<path d="M6505 3732 c-27 -20 -108 -80 -180 -131 -140 -102 -212 -155 -372
-278 -56 -43 -109 -82 -118 -88 -28 -17 -7 -41 58 -63 101 -35 334 -90 457
-107 63 -10 123 -21 134 -27 21 -11 35 3 36 37 1 24 12 140 39 390 24 222 27
305 9 305 -7 0 -35 -17 -63 -38z m31 -59 c-3 -16 -13 -98 -21 -183 -25 -263
-37 -385 -40 -388 -11 -13 -553 114 -575 135 -2 2 2 8 10 13 16 10 212 152
463 337 83 62 156 112 160 113 5 0 6 -12 3 -27z"/>
<path d="M8044 3743 c-4 -14 1 -99 10 -187 9 -89 24 -226 32 -306 19 -184 26
-216 44 -211 8 2 69 12 135 22 133 21 426 92 493 120 30 13 42 24 42 39 0 11
-5 20 -10 20 -6 0 -76 50 -155 110 -80 61 -195 147 -257 192 -62 44 -146 106
-186 137 -83 63 -124 91 -134 91 -4 0 -11 -12 -14 -27z m119 -92 c34 -26 114
-85 177 -131 213 -152 379 -275 380 -281 0 -3 -35 -16 -77 -28 -43 -12 -100
-28 -128 -36 -51 -14 -341 -75 -361 -75 -7 0 -13 34 -17 88 -6 77 -21 230 -43
445 -4 37 -4 67 0 67 3 0 34 -22 69 -49z"/>
</g>
</svg>
