<?xml version="1.0" standalone="no"?>
<!DOCTYPE svg PUBLIC "-//W3C//DTD SVG 20010904//EN"
 "http://www.w3.org/TR/2001/REC-SVG-20010904/DTD/svg10.dtd">
<svg version="1.0" xmlns="http://www.w3.org/2000/svg"
 width="1200.000000pt" height="1182.000000pt" viewBox="0 0 1200.000000 1182.000000"
 preserveAspectRatio="xMidYMid meet">
<metadata>
Created by potrace 1.16, written by Peter Selinger 2001-2019
</metadata>
<g transform="translate(0.000000,1182.000000) scale(0.100000,-0.100000)"
fill="#000000" stroke="none">
<path d="M6019 11653 c-29 -42 -86 -117 -357 -467 -107 -139 -265 -361 -320
-453 -76 -125 -176 -335 -204 -425 -12 -43 -27 -78 -32 -78 -6 0 -44 22 -85
49 -42 27 -115 73 -163 103 -528 322 -739 462 -875 579 -46 40 -60 30 -68 -49
-13 -124 -54 -356 -90 -507 -20 -82 -53 -226 -74 -320 -80 -350 -105 -450
-111 -458 -4 -5 -39 7 -76 26 -259 130 -541 196 -1189 277 -176 22 -346 45
-379 51 -80 14 -83 9 -68 -94 7 -45 22 -152 32 -237 82 -638 117 -829 194
-1063 24 -73 64 -174 90 -224 25 -51 46 -95 46 -97 0 -3 -17 -8 -37 -12 -21
-3 -92 -19 -158 -35 -588 -140 -861 -198 -1005 -215 -156 -18 -170 -21 -170
-37 0 -7 32 -54 71 -103 112 -139 229 -318 542 -829 44 -71 95 -154 115 -183
19 -29 33 -54 31 -56 -2 -1 -53 -20 -112 -41 -249 -87 -507 -246 -918 -567
-258 -200 -327 -254 -381 -290 -32 -22 -58 -47 -58 -56 1 -10 43 -47 97 -87
54 -38 179 -133 279 -211 364 -284 531 -400 725 -502 124 -66 269 -127 324
-138 45 -8 51 -18 27 -52 -11 -15 -72 -112 -137 -217 -65 -104 -158 -255 -208
-335 -166 -268 -302 -465 -370 -538 -40 -41 -29 -66 29 -69 170 -11 393 -57
1039 -213 88 -21 181 -41 206 -45 74 -11 74 -13 30 -98 -21 -43 -55 -121 -74
-175 -94 -259 -130 -444 -217 -1132 -11 -91 -26 -200 -32 -243 -8 -48 -8 -80
-2 -86 5 -6 70 -1 169 14 88 13 288 40 445 60 508 65 835 148 1046 265 47 27
53 28 58 12 3 -9 28 -116 56 -237 28 -121 75 -324 105 -452 49 -205 88 -414
112 -598 6 -41 13 -61 23 -63 9 -1 56 30 105 69 97 78 320 228 530 356 190
116 423 261 477 295 25 17 49 31 53 32 4 0 17 -30 30 -69 91 -277 239 -519
595 -975 182 -233 300 -391 300 -401 0 -5 13 -9 29 -9 22 0 35 8 52 33 48 69
136 185 192 254 381 472 583 788 676 1058 17 50 34 96 36 103 3 8 26 -2 72
-32 38 -24 127 -80 198 -123 488 -299 610 -378 759 -492 54 -42 107 -82 117
-90 33 -24 47 -7 54 66 13 129 46 318 86 488 48 204 105 450 148 640 18 77 34
146 36 153 3 9 20 5 58 -17 213 -118 542 -202 1048 -266 156 -20 356 -47 444
-60 91 -13 164 -20 169 -15 5 5 -2 87 -18 197 -14 103 -35 265 -46 358 -60
502 -140 838 -257 1069 -24 48 -42 91 -39 93 3 3 42 13 88 23 46 10 220 50
388 90 406 96 662 148 778 157 126 11 133 21 66 100 -104 122 -204 270 -459
685 -55 89 -135 218 -177 286 -43 68 -78 125 -78 127 0 2 21 11 48 19 140 42
335 137 509 247 127 81 272 187 562 412 136 106 270 208 299 227 28 19 52 42
52 51 0 9 -19 29 -42 44 -42 27 -152 111 -408 311 -403 314 -672 479 -920 565
-52 18 -97 34 -99 35 -2 2 19 38 46 81 28 43 110 175 183 293 287 464 368 585
512 763 34 42 14 51 -147 70 -77 9 -219 34 -315 56 -242 54 -552 126 -695 160
-66 16 -137 32 -157 35 -21 4 -38 8 -38 10 0 2 23 52 51 111 116 247 193 573
249 1055 11 96 32 257 46 358 18 122 23 187 16 194 -6 6 -29 6 -68 -1 -32 -6
-202 -29 -378 -51 -177 -22 -391 -52 -476 -66 -291 -48 -557 -128 -727 -218
-53 -29 -63 -31 -67 -17 -3 9 -37 153 -76 321 -39 168 -89 382 -111 475 -37
160 -69 342 -84 482 -10 90 -22 95 -92 35 -119 -102 -350 -253 -886 -582 -68
-42 -144 -90 -170 -108 l-48 -32 -9 26 c-6 14 -10 29 -10 34 0 24 -99 249
-152 344 -104 190 -209 341 -478 686 -75 96 -170 220 -210 275 -72 97 -87 115
-102 115 -4 0 -22 -21 -39 -47z m74 -72 c15 -22 106 -142 202 -266 324 -416
439 -583 541 -786 46 -93 103 -234 122 -303 l10 -36 -86 -67 c-48 -36 -108
-86 -134 -111 -25 -24 -49 -44 -53 -45 -3 -1 -39 68 -79 153 -40 85 -105 214
-145 285 -134 239 -383 646 -398 652 -8 3 -21 -1 -28 -8 -18 -18 -282 -458
-381 -635 -67 -120 -197 -381 -217 -437 -6 -16 -16 -11 -70 38 -34 31 -94 81
-134 111 -40 30 -74 58 -77 62 -6 10 44 162 84 252 39 89 143 275 214 380 64
96 189 264 381 510 83 107 166 216 185 243 18 26 34 47 35 47 1 0 14 -18 28
-39z m105 -821 c356 -590 505 -913 582 -1260 l19 -85 -67 -70 c-68 -71 -149
-171 -171 -212 -6 -13 -15 -23 -20 -23 -4 0 -16 30 -26 68 -62 231 -183 546
-360 932 -66 145 -78 162 -101 153 -16 -6 -200 -410 -289 -638 -52 -132 -136
-380 -156 -462 -7 -29 -16 -53 -20 -53 -3 0 -19 19 -34 43 -40 60 -99 133
-167 203 l-59 60 21 93 c65 291 208 616 466 1056 111 190 247 415 250 412 1
-1 60 -99 132 -217z m-2134 67 c104 -79 256 -178 556 -364 491 -304 610 -385
724 -494 l70 -66 -42 -119 c-23 -65 -49 -148 -57 -184 -9 -36 -21 -82 -26
-102 l-10 -38 -77 59 c-182 137 -350 238 -656 392 -164 84 -201 98 -211 87
-17 -17 -145 -411 -185 -568 -35 -137 -80 -384 -80 -436 0 -19 -4 -34 -9 -34
-5 0 -51 25 -102 56 -52 31 -143 79 -203 107 l-108 52 6 100 c10 150 38 314
100 580 63 269 91 390 135 580 25 110 43 207 77 423 3 17 7 32 9 32 3 0 43
-28 89 -63z m4096 56 c0 -5 9 -69 20 -143 20 -130 30 -181 105 -500 157 -667
179 -781 191 -965 l7 -101 -88 -39 c-49 -21 -140 -70 -203 -107 -63 -37 -118
-68 -123 -68 -5 0 -9 15 -9 34 0 52 -37 257 -71 396 -41 163 -177 591 -194
609 -11 11 -50 -5 -247 -106 -302 -154 -525 -291 -652 -399 -40 -34 -56 -36
-56 -5 0 24 -63 240 -97 333 l-28 78 50 51 c28 28 100 88 160 133 112 85 147
108 620 401 292 182 476 303 552 365 48 39 63 47 63 33z m-1996 -930 c253
-571 372 -971 377 -1267 l1 -97 -46 -57 c-43 -54 -128 -176 -173 -250 l-20
-33 -31 83 c-17 46 -63 173 -102 283 -40 110 -77 208 -82 218 -12 22 -35 22
-47 -2 -9 -16 -91 -238 -186 -503 -15 -43 -29 -78 -30 -78 -2 0 -18 26 -35 58
-18 31 -64 99 -104 151 -115 152 -108 134 -101 236 14 201 49 367 131 624 97
299 332 857 354 835 5 -5 47 -95 94 -201z m1659 -198 c148 -451 193 -692 184
-989 -6 -195 -29 -318 -64 -344 -102 -73 -186 -137 -223 -170 l-45 -41 -6 187
c-7 193 -11 224 -59 477 -31 161 -55 318 -65 428 -5 53 -10 67 -23 67 -9 0
-54 -31 -100 -69 -46 -38 -174 -131 -285 -207 -229 -156 -302 -213 -438 -342
l-96 -91 -7 87 c-4 48 -14 128 -23 178 l-16 92 38 62 c134 220 364 421 710
620 167 97 449 240 456 232 4 -4 32 -83 62 -177z m-3264 89 c541 -282 812
-494 977 -766 l37 -60 -17 -95 c-10 -53 -20 -133 -23 -179 -3 -46 -6 -84 -7
-84 -1 0 -37 35 -81 78 -126 122 -237 210 -425 337 -183 124 -261 180 -346
252 -77 65 -94 57 -94 -41 0 -53 -46 -347 -75 -486 -28 -131 -45 -300 -45
-448 l0 -144 -51 44 c-42 36 -150 119 -222 170 -25 18 -55 138 -68 273 -24
252 39 612 186 1059 51 154 60 176 77 176 6 0 86 -39 177 -86z m5580 17 c-4
-30 -20 -147 -34 -260 -74 -593 -111 -792 -191 -1021 -40 -115 -122 -290 -139
-296 -6 -3 -64 2 -129 11 -64 8 -142 15 -173 15 -49 0 -54 2 -48 18 83 204
150 425 254 837 17 66 44 172 60 235 25 100 27 117 15 130 -12 13 -48 6 -287
-53 -409 -102 -651 -173 -847 -248 -41 -16 -78 -29 -82 -29 -5 0 -8 30 -8 68
-1 61 -6 109 -25 242 l-7 45 84 42 c115 59 211 95 363 137 139 38 401 90 544
106 204 23 635 81 640 85 13 14 18 -16 10 -64z m-8051 49 c37 -6 177 -24 312
-40 507 -62 758 -113 985 -200 64 -25 228 -103 243 -115 2 -2 -4 -50 -12 -108
-9 -57 -16 -137 -16 -176 0 -39 -4 -71 -9 -71 -4 0 -56 18 -114 40 -111 41
-268 92 -397 129 -135 37 -673 171 -691 171 -9 0 -19 -6 -22 -13 -6 -16 148
-631 205 -817 41 -136 91 -282 122 -354 9 -21 16 -40 16 -42 0 -2 -24 -4 -54
-4 -30 0 -109 -7 -177 -16 -144 -19 -128 -28 -194 111 -104 223 -177 522 -230
950 -33 261 -65 501 -71 533 -8 37 -4 38 104 22z m648 -511 c394 -99 583 -156
784 -234 130 -51 337 -152 445 -218 l90 -54 7 -144 c4 -79 14 -171 22 -204 8
-33 13 -61 11 -63 -2 -2 -22 9 -46 23 -188 119 -1058 489 -1106 470 -20 -7
-16 -29 23 -139 115 -321 302 -749 405 -927 51 -88 56 -100 36 -95 -47 13
-165 27 -270 31 -61 3 -116 10 -124 16 -39 33 -174 287 -247 466 -98 238 -153
421 -262 855 -36 145 -67 269 -69 276 -3 6 1 12 9 12 7 0 138 -32 292 -71z
m6959 59 c-2 -7 -32 -123 -65 -258 -160 -643 -288 -991 -468 -1271 l-49 -76
-119 -7 c-119 -7 -215 -18 -267 -31 l-28 -7 32 53 c124 211 328 678 450 1031
32 93 24 99 -78 64 -104 -37 -379 -145 -528 -208 -133 -56 -464 -219 -508
-250 -15 -11 -30 -19 -32 -17 -2 3 3 31 11 64 8 33 18 124 21 203 l6 142 66
42 c216 136 537 272 861 364 171 48 654 172 677 173 14 1 21 -4 18 -11z
m-4730 -413 c72 -49 172 -119 222 -157 122 -91 339 -307 434 -433 89 -117 171
-254 171 -287 1 -13 -20 -97 -46 -188 -26 -91 -50 -178 -54 -195 l-8 -29 -26
45 c-50 86 -105 145 -299 324 -107 98 -233 216 -281 263 -113 111 -118 110
-118 -45 0 -65 -5 -238 -11 -385 -12 -264 -11 -294 18 -458 l6 -34 -29 19
c-16 11 -92 54 -169 97 -77 42 -148 83 -157 90 -10 7 -29 53 -43 103 -44 153
-58 287 -59 535 0 234 4 272 54 535 16 83 36 200 45 260 9 61 18 124 21 142
l5 31 97 -73 c53 -40 156 -112 227 -160z m2545 85 c6 -52 30 -187 51 -300 52
-270 66 -464 51 -677 -16 -207 -41 -350 -79 -445 -13 -33 -28 -44 -128 -97
-62 -33 -143 -78 -179 -101 -37 -22 -68 -40 -70 -40 -2 0 3 26 12 58 19 64 20
225 5 677 -8 257 -8 260 -30 263 -14 2 -26 -4 -32 -17 -6 -10 -91 -93 -188
-183 -272 -250 -405 -386 -442 -451 -18 -32 -34 -57 -36 -55 -2 2 -12 41 -23
88 -12 47 -37 138 -57 203 l-36 119 42 77 c64 121 192 284 334 427 151 151
211 200 430 349 165 112 228 157 305 219 l45 36 6 -28 c4 -15 12 -70 19 -122z
m-4415 -260 c28 -9 124 -47 215 -83 483 -190 782 -349 1015 -538 133 -108 134
-109 150 -245 7 -66 23 -157 34 -201 12 -45 21 -84 21 -86 0 -5 -65 25 -350
160 -227 109 -250 116 -250 78 0 -12 134 -306 236 -519 13 -28 24 -53 24 -56
0 -3 -42 4 -92 17 -51 12 -140 28 -198 34 -58 7 -115 18 -127 26 -78 47 -280
337 -407 585 -106 203 -259 563 -337 787 -23 67 -24 75 -1 66 9 -4 40 -15 67
-25z m6025 23 c0 -10 -56 -162 -102 -278 -176 -440 -293 -676 -452 -909 -80
-118 -201 -255 -229 -260 -12 -2 -76 -11 -142 -20 -66 -9 -148 -23 -183 -32
-35 -9 -65 -14 -68 -12 -2 3 55 130 126 282 72 153 130 285 130 292 0 8 -6 17
-14 20 -8 3 -143 -55 -300 -129 -157 -74 -286 -130 -286 -124 0 7 7 35 16 62
8 28 24 115 34 195 l19 145 72 68 c225 213 589 407 1214 648 158 61 165 63
165 52z m-2957 -423 c139 -384 229 -687 230 -775 1 -27 -14 -74 -46 -145 -25
-58 -61 -147 -80 -199 -19 -52 -36 -90 -39 -85 -7 11 -125 379 -133 416 -7 27
-33 45 -45 31 -4 -4 -40 -109 -79 -232 -40 -122 -74 -221 -76 -219 -2 2 -18
44 -35 93 -17 50 -54 143 -82 207 l-50 117 21 98 c20 91 83 314 116 408 56
162 122 345 172 479 18 47 28 64 34 55 4 -8 46 -120 92 -249z m-799 -426 c78
-71 163 -157 189 -190 85 -104 213 -383 287 -621 29 -91 29 -91 12 -155 -13
-49 -16 -110 -16 -273 0 -225 18 -373 69 -548 24 -84 21 -87 -17 -17 -52 94
-74 128 -139 215 -76 101 -175 214 -251 283 -56 53 -187 152 -199 152 -23 0
-155 274 -222 461 -76 211 -81 245 -73 539 3 140 9 303 13 362 l6 107 100 -92
c55 -50 164 -151 241 -223z m1761 -159 c7 -232 6 -256 -14 -341 -34 -150 -116
-360 -213 -545 -45 -87 -56 -100 -111 -137 -187 -124 -410 -376 -539 -609 -22
-40 -41 -73 -43 -73 -2 0 3 21 11 48 76 247 105 622 65 820 l-20 93 28 93 c63
210 174 459 260 584 41 60 142 161 351 352 69 63 143 132 165 152 l40 38 6
-113 c4 -61 10 -224 14 -362z m-4333 247 c31 -64 80 -155 107 -201 28 -46 50
-86 48 -87 -2 -2 -45 -8 -96 -14 -114 -13 -302 -52 -441 -91 -198 -56 -501
-161 -507 -175 -5 -14 148 -326 235 -479 67 -119 224 -354 272 -410 l43 -50
-79 -18 c-97 -22 -259 -71 -321 -98 l-46 -20 -34 33 c-93 89 -239 288 -368
503 -43 72 -95 155 -115 185 -20 30 -72 114 -115 185 -99 164 -236 371 -310
466 l-56 74 118 17 c141 19 259 44 658 138 589 138 695 158 845 159 l105 0 57
-117z m6973 88 c61 -11 193 -41 295 -65 102 -23 239 -55 305 -70 66 -15 163
-38 215 -50 139 -35 385 -82 463 -90 37 -4 67 -11 67 -15 0 -5 -31 -50 -70
-100 -76 -100 -179 -259 -404 -625 -243 -393 -390 -603 -488 -693 l-25 -23
-44 19 c-61 26 -205 71 -312 96 l-89 21 45 55 c71 89 169 235 251 379 105 182
258 490 252 506 -6 16 -379 140 -566 189 -136 35 -316 70 -422 81 -32 4 -58 8
-58 11 0 2 25 46 55 96 31 51 79 141 108 201 l52 109 130 -5 c72 -3 180 -15
240 -27z m-5093 -645 c327 -177 322 -174 388 -337 29 -73 68 -163 86 -200 19
-37 34 -70 34 -73 0 -4 -93 41 -207 99 -113 58 -215 106 -225 106 -28 0 -22
-23 25 -108 71 -125 169 -324 163 -329 -3 -3 -38 10 -78 29 -86 41 -171 78
-253 109 -33 13 -66 28 -74 34 -37 27 -197 310 -318 563 -81 170 -193 411
-193 417 0 8 521 -239 652 -310z m3374 169 c-221 -480 -414 -833 -464 -851
-81 -29 -213 -83 -290 -120 -52 -25 -96 -43 -98 -40 -6 5 126 272 175 356 32
53 34 81 8 81 -8 0 -107 -48 -220 -106 -114 -58 -207 -103 -207 -99 0 3 22 54
49 113 58 127 94 214 110 263 9 27 26 45 74 76 141 92 403 230 652 344 88 41
185 86 215 100 30 15 56 26 58 24 1 -1 -26 -65 -62 -141z m-4769 35 c114 -15
192 -39 209 -63 29 -42 144 -192 173 -227 l31 -36 -183 -6 c-150 -5 -216 -12
-377 -42 -316 -59 -344 -63 -471 -77 -77 -8 -123 -17 -126 -25 -3 -7 17 -38
45 -70 62 -73 128 -163 275 -378 133 -194 171 -242 304 -377 l95 -96 -53 -6
c-30 -3 -84 -8 -121 -11 -36 -4 -93 -13 -125 -20 l-58 -14 -68 40 c-236 140
-443 388 -680 814 -66 120 -178 348 -172 353 9 9 219 79 381 126 367 108 684
147 921 115z m5948 1 c161 -17 353 -59 578 -124 105 -31 346 -112 354 -120 6
-5 -142 -294 -229 -446 -169 -296 -356 -524 -538 -659 -132 -98 -131 -98 -253
-78 -58 9 -122 17 -143 17 -22 0 -56 3 -77 6 l-37 7 115 118 c119 122 166 184
320 410 98 145 200 283 251 341 19 21 31 43 29 51 -4 8 -45 17 -126 25 -125
14 -152 18 -469 77 -158 29 -230 38 -380 43 l-185 7 41 45 c50 56 134 164 159
207 16 27 29 34 84 48 144 34 333 44 506 25z m-3102 -378 c102 -311 109 -344
114 -553 6 -202 -7 -323 -52 -516 -26 -109 -73 -241 -103 -286 l-19 -27 -27
50 c-87 159 -150 472 -149 745 0 130 4 179 22 260 21 92 148 495 156 495 2 0
28 -76 58 -168z m-2344 -17 c134 -5 340 -42 414 -74 42 -18 50 -27 91 -108 25
-48 69 -128 99 -178 30 -49 53 -91 52 -93 -2 -2 -20 1 -42 8 -96 27 -188 30
-532 16 -190 -8 -362 -13 -381 -13 -63 3 -51 -25 57 -136 54 -56 171 -181 260
-277 182 -197 202 -216 284 -267 33 -20 56 -39 52 -43 -4 -4 -42 -15 -83 -25
-41 -9 -125 -32 -186 -51 -61 -19 -117 -34 -125 -34 -29 0 -202 108 -306 190
-115 92 -292 265 -378 370 -29 36 -108 146 -175 245 -68 99 -152 217 -186 262
-35 45 -64 84 -64 86 0 3 28 8 63 12 87 9 212 30 427 71 176 34 393 55 495 48
22 -2 96 -6 164 -9z m5061 -11 c52 -7 179 -29 281 -48 102 -20 228 -40 280
-47 52 -6 95 -12 97 -14 2 -2 -23 -36 -55 -77 -32 -41 -118 -163 -192 -271
-149 -218 -181 -259 -314 -396 -173 -177 -337 -308 -470 -375 l-76 -39 -123
36 c-68 20 -154 44 -193 53 -38 9 -74 20 -78 24 -4 4 19 23 51 43 69 43 158
127 317 302 66 72 164 176 219 233 115 118 128 148 61 146 -22 -1 -191 5 -376
12 -333 13 -440 10 -532 -16 -22 -6 -40 -10 -42 -8 -2 2 13 31 34 64 21 34 67
113 101 178 70 132 75 136 202 166 241 56 566 70 808 34z m-3665 -477 c242
-133 409 -293 597 -574 87 -129 180 -334 159 -348 -5 -2 -42 7 -83 21 -144 48
-364 192 -538 351 -171 157 -232 242 -375 524 -52 103 -95 190 -95 193 0 8
189 -87 335 -167z m2016 -32 c-134 -259 -181 -327 -320 -465 -154 -153 -295
-260 -461 -348 -75 -40 -207 -88 -216 -79 -8 7 53 165 87 226 153 272 380 525
584 649 72 44 419 222 423 217 3 -2 -41 -92 -97 -200z m-2766 8 c141 -43 267
-93 432 -174 l142 -69 47 -73 c117 -176 416 -435 632 -547 23 -12 42 -23 42
-24 0 -2 -51 10 -112 25 -239 60 -515 81 -698 53 -153 -23 -167 -22 -299 21
-237 77 -467 190 -583 287 -47 39 -478 501 -478 512 0 3 48 7 108 7 59 1 161
5 227 9 66 4 192 6 280 5 145 -2 169 -5 260 -32z m3853 25 c166 -7 301 -15
300 -19 -2 -4 -37 -43 -78 -86 -41 -43 -118 -125 -170 -183 -179 -196 -201
-218 -253 -258 -65 -50 -140 -93 -283 -159 -135 -63 -373 -145 -423 -146 -20
0 -94 8 -166 18 -117 17 -147 17 -295 6 -158 -12 -272 -30 -427 -69 -40 -10
-73 -18 -73 -16 0 1 38 24 85 50 231 129 492 369 617 565 19 30 150 100 321
173 199 85 374 135 477 136 36 0 201 -5 368 -12z m-6519 -209 c19 -28 68 -89
109 -136 41 -46 72 -86 70 -88 -1 -2 -62 -30 -135 -64 -177 -81 -342 -173
-775 -431 -168 -100 -195 -121 -183 -140 7 -11 460 -284 640 -385 77 -43 210
-112 295 -153 85 -41 157 -76 159 -78 2 -2 -28 -38 -66 -81 -38 -43 -88 -104
-111 -135 -24 -32 -46 -58 -50 -58 -39 1 -243 81 -352 138 -212 112 -346 205
-730 502 -135 105 -266 205 -292 223 -26 18 -47 34 -47 37 0 3 74 61 165 130
90 69 240 183 332 254 252 194 422 305 606 398 81 41 288 118 316 118 8 0 30
-23 49 -51z m8780 15 c270 -93 478 -226 1036 -660 100 -78 200 -154 223 -169
23 -15 42 -31 42 -34 0 -4 -13 -14 -29 -24 -15 -9 -156 -116 -312 -237 -420
-326 -639 -469 -864 -564 -101 -43 -223 -83 -228 -75 -41 59 -126 167 -166
211 -48 52 -57 78 -30 78 20 0 316 148 464 232 185 105 585 345 605 364 13 12
12 16 -5 33 -30 27 -504 310 -692 411 -90 49 -214 112 -276 140 -61 29 -114
53 -115 55 -2 2 35 50 84 107 48 57 96 118 106 136 11 17 27 32 35 32 9 0 64
-16 122 -36z m-7993 -182 c61 -60 144 -129 208 -172 48 -32 49 -34 25 -41
-358 -108 -621 -209 -994 -382 -102 -48 -141 -70 -143 -84 -2 -16 22 -31 140
-86 149 -68 309 -139 463 -202 115 -47 415 -149 489 -166 31 -7 59 -16 61 -19
3 -4 -14 -20 -38 -35 -61 -40 -133 -100 -204 -169 l-62 -60 -81 18 c-267 57
-609 203 -990 423 -225 129 -489 287 -489 293 -1 6 416 256 580 348 300 170
574 287 824 352 149 40 153 39 211 -18z m7206 29 c260 -61 564 -190 903 -383
182 -104 544 -322 544 -328 0 -6 -352 -216 -534 -319 -250 -141 -505 -261
-685 -323 -92 -31 -303 -88 -327 -88 -8 0 -49 31 -90 70 -67 63 -147 127 -213
172 -29 19 -35 15 95 51 149 42 395 133 629 233 305 131 411 184 411 207 0 41
-641 313 -995 422 -85 26 -156 49 -158 50 -2 2 18 18 45 36 62 42 169 133 212
181 40 44 49 45 163 19z m-6400 -259 c58 -51 197 -150 248 -178 28 -15 50 -30
50 -33 0 -3 -44 -21 -98 -40 -185 -65 -494 -179 -500 -186 -3 -3 -2 -13 4 -22
9 -15 94 -48 422 -164 94 -34 172 -66 172 -70 0 -5 -4 -9 -9 -9 -14 0 -189
-117 -261 -176 -63 -51 -70 -54 -123 -54 -226 0 -599 93 -977 242 -174 69
-540 231 -540 239 0 4 26 18 58 32 532 235 777 327 1032 387 207 48 259 55
407 58 77 2 84 0 115 -26z m5783 4 c245 -44 590 -157 925 -303 295 -130 330
-147 323 -154 -5 -5 -65 -34 -133 -65 -606 -273 -991 -392 -1330 -410 l-105
-5 -92 73 c-51 40 -126 94 -167 118 -42 25 -76 48 -76 51 0 3 60 27 133 53
301 108 439 160 454 172 14 9 15 15 5 27 -7 8 -143 61 -302 118 -159 57 -290
107 -290 111 0 3 26 21 58 38 62 36 230 159 253 186 12 15 28 16 139 10 69 -3
161 -12 205 -20z m-4855 -141 c56 -28 173 -76 257 -104 132 -45 136 -36 -47
-97 -91 -30 -194 -62 -230 -72 -52 -14 -66 -22 -68 -39 -2 -15 3 -23 20 -28
104 -28 437 -140 431 -145 -5 -3 -26 -12 -48 -19 -95 -31 -230 -83 -285 -111
-33 -17 -74 -30 -92 -30 -73 0 -409 98 -703 204 -71 26 -168 60 -215 77 -148
53 -143 48 -85 69 444 163 626 223 830 276 94 24 174 43 178 44 4 0 30 -11 57
-25z m3787 -15 c181 -45 314 -88 598 -190 280 -100 285 -102 285 -109 0 -7
-230 -91 -514 -187 -207 -71 -472 -144 -524 -144 -18 0 -56 12 -84 26 -58 30
-210 89 -283 111 -27 8 -53 18 -58 22 -6 6 304 111 431 146 17 5 22 13 20 28
-2 17 -16 25 -68 39 -36 10 -139 42 -230 72 -141 47 -161 56 -140 64 14 5 77
28 140 51 63 23 147 57 185 76 39 18 73 34 77 34 3 1 78 -17 165 -39z m-1923
-127 c-8 -25 -14 -59 -14 -75 0 -25 3 -28 33 -28 17 0 48 4 66 10 19 5 36 8
38 6 2 -1 -19 -17 -47 -34 -64 -40 -65 -60 -2 -101 l47 -32 -50 7 c-54 7 -54
7 -72 5 -15 -1 -17 -43 -3 -90 5 -19 8 -36 6 -38 -1 -2 -17 20 -34 48 -39 62
-55 61 -101 -6 -19 -28 -31 -42 -28 -33 3 10 9 40 13 66 7 58 -2 65 -66 51
-63 -14 -68 -7 -16 26 60 38 59 58 -4 97 -53 33 -60 45 -16 28 42 -16 96 -13
103 6 3 9 1 37 -5 62 -6 26 -9 48 -8 50 2 1 16 -18 31 -42 16 -25 34 -47 42
-50 16 -7 49 27 74 77 26 50 30 47 13 -10z m-819 -8 c72 -9 186 -29 255 -46
123 -30 290 -95 297 -115 5 -14 -114 -69 -212 -98 -284 -85 -613 -107 -845
-56 -104 22 -480 141 -480 152 0 6 200 72 387 128 168 51 365 62 598 35z
m1923 0 c51 -8 172 -41 270 -71 97 -31 198 -63 225 -71 26 -8 47 -18 47 -21 0
-8 -291 -104 -405 -134 -110 -29 -242 -48 -340 -48 -163 0 -417 36 -570 82
-94 27 -226 89 -222 102 9 27 224 104 382 137 182 38 460 49 613 24z m-1322
-337 c-61 -194 -207 -416 -415 -631 -84 -87 -161 -149 -258 -208 -76 -47 -403
-212 -409 -206 -6 6 199 398 243 462 104 154 264 306 468 445 143 97 306 177
367 179 15 1 16 -3 4 -41z m442 -18 c214 -102 492 -323 625 -497 64 -84 123
-185 218 -374 43 -87 79 -160 79 -162 0 -6 -392 196 -440 227 -201 128 -432
390 -572 646 -30 54 -88 198 -88 217 0 14 85 -13 178 -57z m-739 -6 c-225
-135 -462 -343 -569 -499 -30 -44 -61 -85 -70 -92 -25 -20 -254 -131 -332
-162 -246 -96 -312 -111 -508 -111 -248 0 -601 12 -598 21 6 16 393 432 457
491 112 104 341 219 614 309 l127 43 113 -19 c197 -34 484 -18 722 41 54 14
101 27 104 29 2 3 11 5 19 5 8 0 -27 -25 -79 -56z m876 31 c214 -62 562 -85
761 -51 l111 19 89 -27 c216 -68 484 -191 597 -274 28 -22 88 -77 132 -124
136 -142 380 -409 383 -418 4 -10 -542 -24 -693 -18 -120 5 -204 26 -390 100
-103 41 -328 149 -355 171 -9 7 -41 49 -73 93 -120 172 -353 373 -596 515 -36
21 -63 39 -59 39 4 0 46 -11 93 -25z m-411 -62 c98 -196 152 -489 143 -790 -4
-166 -7 -186 -40 -303 -38 -136 -127 -410 -132 -410 -2 0 -29 78 -61 173 -112
339 -134 472 -116 702 20 247 76 485 146 623 14 28 28 52 31 52 3 0 15 -21 29
-47z m-2071 -119 c64 -16 117 -31 117 -34 0 -3 -32 -25 -70 -49 -69 -44 -170
-142 -355 -346 -55 -60 -139 -150 -187 -200 -77 -79 -106 -124 -80 -126 4 0
59 -1 122 -3 63 -2 252 -6 420 -11 266 -6 313 -5 366 9 34 9 67 16 73 16 5 0
-7 -28 -28 -62 -22 -35 -68 -117 -103 -183 l-64 -120 -55 -18 c-251 -85 -690
-102 -1019 -38 -265 50 -382 70 -457 77 -40 4 -73 9 -73 11 0 3 38 55 83 116
46 62 128 177 182 257 141 207 175 249 315 390 177 179 325 294 468 366 l64
32 81 -27 c45 -16 135 -41 200 -57z m4440 45 c132 -67 282 -184 448 -350 139
-139 192 -205 334 -414 59 -88 141 -204 181 -258 41 -53 74 -99 74 -102 0 -3
-15 -5 -33 -5 -40 0 -300 -42 -466 -76 -159 -32 -280 -43 -456 -44 -243 0
-445 26 -594 77 l-54 18 -78 142 c-43 79 -89 159 -103 180 -14 20 -24 39 -21
41 2 2 37 -4 76 -13 66 -16 102 -17 373 -10 166 5 353 9 416 11 63 2 118 3
123 3 18 2 4 40 -24 67 -17 16 -106 110 -196 209 -218 237 -346 362 -416 405
-31 19 -57 37 -57 40 0 3 51 18 113 34 61 15 144 38 182 51 93 31 107 30 178
-6z m-2555 -101 c-68 -217 -98 -615 -60 -800 l20 -97 -28 -94 c-69 -229 -185
-481 -279 -607 -27 -36 -125 -135 -218 -220 -92 -85 -202 -187 -244 -227 l-76
-73 -7 122 c-3 68 -9 231 -13 363 -5 209 -4 251 12 320 34 156 129 401 221
570 40 74 50 86 132 143 79 56 201 172 301 286 52 59 137 182 198 283 31 51
57 93 58 93 2 0 -6 -28 -17 -62z m363 -48 c83 -139 185 -267 318 -400 69 -69
157 -146 195 -170 l68 -44 78 -160 c88 -182 141 -318 177 -456 24 -92 25 -102
19 -330 -3 -129 -9 -297 -13 -372 l-6 -137 -141 131 c-78 72 -193 180 -257
239 -74 69 -134 135 -165 181 -87 132 -198 385 -259 587 -24 80 -24 85 -9 144
22 87 29 321 15 458 -12 116 -48 305 -75 394 -8 28 -10 43 -5 35 5 -8 32 -53
60 -100z m-3244 -65 c57 -8 121 -15 142 -15 79 0 78 -5 -34 -124 -126 -135
-170 -191 -288 -366 -97 -145 -236 -334 -286 -389 -17 -18 -31 -37 -31 -41 0
-18 31 -28 111 -34 47 -3 175 -22 285 -42 109 -19 246 -44 304 -54 68 -12 167
-20 282 -22 98 -2 178 -5 178 -8 0 -2 -13 -18 -29 -35 -15 -16 -57 -69 -92
-116 -35 -47 -73 -97 -84 -112 -16 -22 -37 -30 -113 -47 -302 -66 -665 -18
-1215 160 -158 51 -187 64 -183 78 12 35 205 401 266 502 168 279 352 493 523
609 81 55 131 81 147 76 8 -2 61 -11 117 -20z m6283 -19 c198 -117 394 -337
585 -657 67 -113 265 -487 265 -502 0 -10 -363 -125 -525 -167 -250 -64 -393
-84 -600 -84 -150 0 -196 4 -275 22 -69 16 -100 29 -113 45 -10 12 -49 64 -88
115 -38 51 -80 105 -94 120 -14 15 -25 29 -25 32 0 3 80 6 178 8 114 2 214 10
282 22 58 10 195 34 305 54 110 20 240 39 288 43 111 8 123 22 71 79 -54 60
-161 204 -269 364 -54 80 -115 168 -135 195 -50 68 -224 259 -257 283 l-28 20
35 6 c19 2 82 10 140 16 58 6 121 15 140 20 19 4 37 8 40 9 3 1 39 -19 80 -43z
m-7145 -171 c72 -24 165 -51 207 -60 l78 -17 -34 -41 c-61 -75 -171 -240 -243
-362 -104 -176 -275 -512 -271 -532 2 -12 44 -31 148 -66 341 -114 541 -167
758 -197 74 -10 136 -21 138 -23 2 -2 -25 -52 -60 -111 -35 -59 -84 -151 -108
-203 l-43 -96 -130 7 c-133 6 -355 46 -595 106 -391 97 -877 200 -945 200 -57
0 -56 9 9 93 85 111 131 181 356 542 106 171 215 346 242 390 135 216 314 433
347 419 9 -3 75 -25 146 -49z m8030 -17 c37 -40 100 -119 141 -176 63 -86 290
-445 440 -692 68 -112 215 -332 277 -413 32 -43 57 -81 54 -84 -3 -2 -81 -17
-174 -33 -151 -25 -329 -65 -833 -185 -277 -66 -442 -95 -575 -101 l-130 -6
-53 112 c-29 62 -78 153 -108 203 -30 50 -52 92 -50 94 2 2 61 12 132 22 149
22 333 62 449 97 225 69 458 150 462 161 4 11 -112 252 -197 408 -91 169 -188
320 -291 456 l-57 76 110 28 c60 14 158 44 216 65 59 21 110 39 114 39 3 1 36
-32 73 -71z m-5334 -329 c-45 -89 -93 -182 -107 -206 -15 -24 -23 -50 -20 -58
6 -17 37 -20 51 -6 14 13 389 201 393 197 2 -2 -11 -33 -29 -67 -18 -35 -58
-127 -89 -204 l-57 -140 -63 -42 c-132 -89 -417 -237 -753 -392 -87 -40 -160
-71 -162 -69 -6 6 208 458 299 633 43 83 106 194 139 247 l61 97 116 46 c63
25 156 65 205 89 50 24 92 42 93 40 2 -1 -33 -76 -77 -165z m2649 27 c42 -15
80 -30 86 -34 19 -13 101 -148 188 -309 72 -133 134 -260 305 -628 11 -22 17
-42 16 -44 -5 -5 -313 138 -515 239 -193 97 -265 136 -387 212 -73 46 -83 56
-96 97 -18 54 -104 257 -136 320 -12 24 -21 44 -19 46 3 3 174 -81 316 -156
51 -27 100 -49 108 -49 23 0 28 28 9 57 -26 39 -195 371 -195 382 0 5 55 -16
123 -48 67 -32 156 -70 197 -85z m-1546 -588 c36 -112 68 -215 72 -230 4 -21
12 -28 29 -28 18 0 25 7 30 33 4 17 36 122 72 232 l65 199 43 -119 c23 -66 61
-163 84 -215 l42 -95 -21 -99 c-27 -125 -97 -360 -155 -522 -25 -68 -66 -181
-91 -251 -26 -71 -51 -141 -57 -157 -12 -36 -15 -32 -68 116 -157 437 -228
660 -264 834 l-17 81 27 59 c41 88 81 191 111 283 15 44 28 81 30 81 1 0 32
-91 68 -202z m-1774 76 c0 -4 -58 -131 -130 -282 -71 -151 -130 -283 -130
-293 0 -10 5 -21 10 -24 9 -6 136 51 505 226 44 21 81 36 83 34 2 -1 -7 -40
-18 -86 -12 -45 -28 -137 -35 -203 l-14 -121 -55 -52 c-77 -72 -192 -157 -316
-235 -114 -71 -391 -213 -535 -274 -186 -78 -540 -212 -543 -205 -3 10 62 191
131 361 204 503 391 832 590 1038 40 40 58 52 82 52 44 0 263 37 315 54 54 17
60 18 60 10z m3911 -34 c52 -10 130 -22 173 -26 l77 -7 70 -76 c204 -220 434
-656 648 -1224 29 -76 51 -142 49 -147 -3 -9 -80 19 -353 127 -437 174 -757
347 -975 529 -124 103 -119 92 -140 255 -11 79 -26 169 -35 199 -8 30 -15 58
-15 62 0 8 39 -9 343 -153 126 -59 235 -105 243 -102 8 3 14 13 14 22 0 9 -56
134 -124 278 -153 322 -146 305 -104 292 18 -5 76 -18 129 -29z m-3142 -132
c-15 -68 -16 -252 -2 -683 7 -215 10 -240 25 -240 9 0 68 50 130 110 62 61
167 159 233 219 181 166 240 227 291 306 25 39 47 70 49 68 1 -2 14 -51 29
-109 14 -58 40 -148 56 -200 l29 -94 -21 -45 c-62 -130 -170 -273 -337 -444
-165 -168 -230 -222 -431 -356 -85 -58 -202 -140 -259 -183 -56 -43 -105 -76
-107 -74 -3 2 -15 76 -29 163 -13 87 -38 231 -55 319 -39 203 -54 382 -46 560
11 267 61 519 111 560 14 11 60 38 102 60 43 21 114 61 158 87 43 26 81 45 83
43 3 -3 -1 -33 -9 -67z m2281 25 c36 -22 111 -63 168 -92 114 -59 120 -66 151
-183 71 -261 77 -636 16 -958 -40 -213 -63 -349 -74 -433 -5 -43 -12 -81 -15
-84 -3 -3 -25 10 -48 29 -54 44 -144 108 -328 233 -192 130 -253 180 -392 319
-132 131 -217 233 -295 353 -76 116 -98 169 -84 200 9 20 71 236 99 347 7 29
7 29 46 -33 44 -72 125 -157 316 -332 74 -68 179 -167 233 -219 54 -52 106
-95 115 -95 15 0 17 13 19 90 1 50 7 230 13 400 9 221 9 327 1 370 -5 33 -13
78 -17 99 -4 23 -3 37 2 34 5 -3 38 -23 74 -45z m-3820 -298 c0 -3 -23 -46
-51 -96 -66 -117 -178 -351 -235 -493 -120 -296 -204 -522 -204 -551 0 -34 59
-17 425 128 228 89 480 205 628 288 60 33 110 59 112 57 2 -2 -3 -30 -11 -63
-8 -33 -18 -121 -21 -195 -3 -74 -10 -141 -16 -148 -5 -7 -46 -34 -91 -61
-243 -146 -455 -235 -804 -337 -170 -50 -712 -187 -718 -182 -2 2 5 37 16 78
10 41 30 120 44 175 170 678 278 973 473 1286 l53 87 113 1 c61 1 144 8 182
15 82 16 105 18 105 11z m5388 -10 c46 -8 129 -15 186 -16 56 0 107 -4 113 -7
13 -9 66 -92 126 -198 91 -162 229 -517 298 -769 42 -153 166 -650 164 -653
-4 -4 -381 89 -585 145 -436 119 -733 240 -977 398 l-60 39 -6 140 c-3 78 -12
168 -21 201 -8 33 -13 62 -11 64 2 2 26 -10 52 -26 131 -80 404 -208 673 -315
361 -144 440 -168 440 -135 0 32 -128 372 -230 612 -57 136 -162 351 -216 446
-24 43 -44 81 -44 84 0 7 4 7 98 -10z m-4330 -830 c6 -38 20 -114 32 -168 32
-159 70 -410 70 -470 0 -58 20 -90 44 -71 7 5 51 40 97 77 46 37 174 129 284
204 215 147 317 228 435 347 41 42 77 76 81 76 3 0 9 -38 12 -85 3 -47 13
-125 22 -174 19 -101 19 -102 -57 -214 -125 -184 -351 -376 -656 -554 -126
-73 -453 -243 -469 -243 -11 0 -111 304 -159 480 -79 295 -113 566 -95 755 13
127 45 266 65 277 35 20 177 126 221 166 l50 45 6 -189 c4 -104 12 -220 17
-259z m3367 308 c55 -41 104 -78 108 -83 5 -4 17 -41 29 -81 26 -96 36 -388
18 -523 -15 -117 -61 -331 -100 -471 -50 -180 -130 -413 -143 -418 -7 -3 -53
15 -102 40 -586 291 -885 519 -1064 812 l-33 55 16 97 c9 54 19 134 23 179 3
44 9 80 12 80 4 0 42 -36 86 -81 117 -118 208 -190 420 -335 105 -70 237 -166
294 -212 57 -46 109 -81 117 -78 7 3 15 24 17 48 17 153 43 323 68 451 43 219
59 362 59 518 l0 141 38 -32 c20 -17 82 -65 137 -107z m-1972 -28 c20 -55 52
-145 72 -200 20 -55 48 -132 61 -171 41 -120 67 -133 96 -52 48 131 140 383
162 447 40 112 38 111 76 45 36 -64 91 -141 158 -222 l45 -53 -2 -96 c-4 -280
-112 -662 -329 -1163 -127 -292 -142 -324 -152 -314 -14 14 -188 409 -242 549
-140 366 -205 614 -229 877 -12 126 -12 130 9 156 80 100 150 197 185 255 27
47 43 64 48 55 4 -7 23 -58 42 -113z m3972 -30 c50 -106 104 -268 139 -415 25
-107 80 -425 91 -535 7 -67 51 -407 64 -500 5 -33 7 -62 5 -64 -2 -2 -52 3
-111 12 -60 9 -166 23 -238 32 -475 56 -745 106 -959 176 -118 39 -318 127
-329 146 -4 6 0 59 8 119 8 60 15 137 15 172 0 34 4 62 10 62 5 0 40 -12 77
-26 200 -76 366 -125 801 -235 273 -68 326 -79 337 -68 11 12 1 64 -60 304
-111 442 -170 642 -241 822 -18 48 -33 88 -31 89 1 1 63 7 137 14 74 6 151 14
170 19 45 11 59 -4 115 -124z m-7270 104 c71 -5 131 -12 133 -14 2 -2 -3 -16
-12 -32 -50 -97 -140 -398 -252 -838 -70 -276 -81 -332 -70 -343 26 -26 925
212 1116 296 25 11 60 23 78 27 l32 7 0 -74 c0 -40 7 -117 15 -172 8 -54 12
-103 9 -108 -12 -20 -211 -108 -330 -147 -214 -70 -489 -121 -959 -176 -71 -8
-179 -23 -238 -31 -59 -9 -110 -15 -112 -12 -3 2 4 65 15 139 11 74 29 213 40
309 59 503 131 818 242 1060 61 133 62 133 117 126 25 -3 104 -11 176 -17z
m1495 -693 c0 -57 47 -305 84 -446 19 -74 66 -229 104 -345 58 -179 71 -210
89 -213 31 -5 358 163 588 301 115 69 265 175 312 219 l32 31 6 -29 c20 -86
67 -251 96 -333 l33 -94 -60 -56 c-104 -98 -255 -206 -504 -359 -539 -331
-686 -426 -797 -514 -40 -32 -75 -58 -77 -58 -2 0 -7 19 -11 43 -35 229 -52
313 -125 627 -149 633 -174 759 -186 944 l-7 101 144 72 c79 40 171 90 204
111 33 22 63 37 68 35 4 -2 7 -19 7 -37z m4299 -124 l113 -55 -6 -101 c-9
-127 -39 -314 -77 -476 -16 -69 -41 -172 -54 -230 -13 -58 -42 -181 -64 -275
-66 -279 -81 -352 -102 -494 -11 -74 -22 -137 -24 -139 -1 -2 -41 26 -86 61
-120 91 -188 136 -625 407 -414 257 -548 349 -659 452 l-69 64 51 155 c28 85
56 181 63 214 7 33 17 64 21 69 4 5 32 -12 61 -36 66 -56 202 -147 338 -228
176 -104 508 -272 531 -268 19 3 31 29 86 198 104 318 171 587 189 765 3 33 7
65 9 72 3 7 39 -10 97 -44 51 -31 144 -81 207 -111z m-2754 -62 c45 -164 163
-492 227 -630 11 -25 36 -81 55 -125 130 -304 159 -352 190 -312 14 17 108
223 191 417 90 210 151 374 208 559 24 80 47 152 50 160 3 9 16 -4 35 -35 35
-56 111 -147 181 -218 40 -40 47 -53 42 -75 -63 -286 -165 -550 -335 -866 -98
-184 -381 -656 -394 -657 -10 -1 -214 333 -335 548 -190 338 -309 619 -375
889 l-27 111 67 69 c73 77 185 220 185 238 0 25 18 -12 35 -73z m-111 -920
c74 -163 183 -359 381 -688 119 -197 166 -267 180 -267 11 0 29 17 45 45 15
25 79 131 142 235 190 314 354 617 422 779 l16 38 57 -53 c32 -29 94 -79 138
-112 44 -32 81 -60 82 -61 7 -6 -63 -199 -98 -274 -105 -227 -236 -423 -564
-842 -67 -85 -148 -190 -179 -232 -32 -43 -60 -78 -62 -78 -2 0 -23 26 -46 58
-24 31 -120 156 -214 277 -313 403 -424 569 -529 788 -60 124 -121 296 -108
306 4 4 42 32 83 64 41 31 100 79 130 106 30 27 58 46 61 43 3 -4 32 -63 63
-132z"/>
</g>
</svg>
